<?xml version="1.0" standalone="no"?>
<!DOCTYPE svg PUBLIC "-//W3C//DTD SVG 20010904//EN"
 "http://www.w3.org/TR/2001/REC-SVG-20010904/DTD/svg10.dtd">
<svg version="1.0" xmlns="http://www.w3.org/2000/svg"
 width="382.000000pt" height="382.000000pt" viewBox="0 0 382.000000 382.000000"
 preserveAspectRatio="xMidYMid meet">
<metadata>
Created by potrace 1.14, written by Peter Selinger 2001-2017
</metadata>
<g transform="translate(0.000000,382.000000) scale(0.100000,-0.100000)"
fill="#000000" stroke="none">
<path d="M2628 3769 c-16 -6 -28 -16 -28 -21 0 -6 -3 -8 -7 -5 -13 14 -110
-103 -149 -180 -21 -43 -38 -81 -37 -85 2 -5 -2 -8 -9 -8 -6 0 -9 -3 -5 -6 3
-3 -3 -26 -14 -51 -11 -25 -17 -48 -14 -51 3 -3 0 -11 -6 -19 -6 -7 -8 -13 -4
-13 4 0 2 -6 -4 -13 -6 -8 -13 -31 -17 -53 -3 -21 -7 -43 -7 -49 -3 -17 32 -8
168 46 17 7 32 13 35 14 3 1 28 12 55 25 67 32 121 71 188 136 44 43 67 70 67
78 0 3 4 15 9 28 12 32 11 29 20 71 6 23 5 39 -1 43 -6 4 -5 10 3 15 10 6 11
9 2 9 -7 0 -12 3 -10 8 3 11 -35 55 -63 71 -31 18 -137 24 -172 10z"/>
<path d="M1347 3303 c-2 -2 -42 -5 -88 -8 -89 -5 -123 -10 -139 -20 -6 -3 -10
-1 -10 5 0 6 -5 8 -12 3 -7 -4 -24 -9 -38 -11 -14 -2 -43 -8 -65 -14 -22 -6
-46 -10 -53 -9 -8 1 -19 -2 -25 -7 -7 -5 -25 -12 -42 -16 -41 -10 -161 -71
-187 -96 -12 -11 -25 -20 -30 -20 -4 0 -8 -7 -8 -15 0 -7 -8 -19 -18 -24 -9
-6 -12 -11 -7 -11 6 0 3 -4 -5 -10 -20 -13 -20 -147 0 -160 8 -6 11 -10 6 -10
-5 0 4 -10 20 -22 37 -30 122 -33 212 -8 36 10 70 16 74 14 4 -3 8 -1 8 5 0 5
18 12 40 16 22 4 40 12 40 18 0 5 3 7 7 4 3 -4 12 -2 19 3 6 6 16 10 20 9 5
-1 23 3 39 10 17 7 42 15 58 18 15 3 27 10 27 15 0 5 6 8 13 7 6 -1 19 0 27 4
16 6 121 40 130 42 3 1 25 7 50 15 25 7 51 13 58 13 6 0 12 3 12 7 0 4 6 7 13
8 6 0 23 3 37 6 14 3 41 9 60 12 19 4 39 9 45 12 9 6 22 8 70 15 11 1 26 6 33
10 7 5 12 3 12 -4 0 -8 4 -8 13 -1 7 6 32 13 57 16 25 2 45 5 45 6 0 1 23 3
52 5 28 1 56 6 62 9 6 4 11 2 11 -5 0 -7 4 -8 13 -2 6 5 51 9 99 9 53 -1 88 3
88 9 0 9 -45 34 -73 39 -6 2 -25 8 -40 14 -15 7 -40 15 -55 18 -15 4 -31 10
-37 14 -5 4 -28 10 -50 13 -22 3 -51 9 -65 12 -14 4 -36 6 -49 6 -12 -1 -28 2
-34 6 -6 4 -25 7 -41 9 -76 5 -159 15 -167 20 -5 3 -9 0 -9 -6 0 -6 -5 -8 -10
-5 -11 7 -208 14 -213 8z"/>
<path d="M2345 3112 c-16 -2 -34 -8 -40 -13 -7 -7 -7 -10 0 -8 25 6 76 -35
141 -113 10 -13 26 -50 24 -56 -1 -2 5 -9 13 -15 14 -13 50 -99 53 -129 1 -10
2 -19 4 -20 11 -15 15 -154 5 -208 -11 -62 -37 -145 -50 -160 -7 -8 -15 -26
-18 -40 -18 -76 -181 -271 -322 -385 -27 -22 -57 -47 -66 -55 -33 -28 -48 -40
-53 -40 -2 0 -37 -22 -77 -50 -40 -27 -76 -50 -81 -50 -4 0 -17 -9 -28 -20
-11 -11 -27 -20 -35 -20 -8 0 -15 -5 -15 -11 0 -5 -4 -7 -10 -4 -5 3 -10 2
-10 -3 0 -6 -13 -15 -30 -21 -16 -5 -30 -12 -30 -15 0 -3 11 -1 24 4 13 5 27
6 30 3 3 -4 6 -1 6 6 0 7 4 10 9 6 5 -3 12 -1 15 4 3 4 18 11 33 14 16 3 42
11 58 18 17 7 32 13 35 14 3 1 19 7 35 14 45 18 60 23 60 20 0 -2 14 4 30 13
17 9 64 31 105 50 41 18 78 37 81 41 4 5 12 6 18 3 6 -4 11 -3 11 2 0 5 15 15
33 23 17 7 34 16 37 20 3 3 21 14 40 24 19 10 60 34 90 55 31 20 66 40 78 44
12 4 22 10 22 14 0 4 30 30 66 57 71 54 176 154 215 205 13 17 32 40 41 52 10
11 20 29 23 39 4 11 11 19 16 19 5 0 9 6 9 14 0 7 7 19 15 26 9 7 14 19 11 27
-3 7 -1 13 4 13 7 0 32 58 35 80 0 3 4 11 8 18 5 6 6 16 2 21 -3 5 -1 12 5 16
5 3 10 19 10 36 0 16 5 29 13 29 8 0 8 3 2 8 -6 4 -11 24 -12 45 -2 41 -36
120 -65 149 -10 10 -18 23 -18 30 0 6 -3 9 -6 6 -3 -4 -14 1 -23 10 -37 35
-59 50 -65 45 -3 -4 -6 -1 -6 5 0 7 -9 12 -20 12 -11 0 -20 5 -20 10 0 6 -9
10 -20 10 -11 0 -20 4 -20 8 0 8 -128 39 -142 34 -5 -1 -8 2 -8 6 0 5 -12 9
-27 10 -132 5 -223 7 -248 4z"/>
<path d="M1806 3001 c-3 -4 -26 -14 -51 -21 -24 -7 -42 -16 -39 -21 3 -5 -2
-6 -10 -3 -9 3 -16 1 -16 -5 0 -6 -6 -11 -12 -11 -13 0 -117 -63 -158 -96 -57
-46 -149 -144 -187 -199 -45 -68 -88 -146 -85 -157 1 -5 -2 -8 -7 -8 -4 0 -14
-21 -21 -47 -7 -27 -19 -59 -27 -72 -12 -18 -12 -22 -2 -15 11 6 12 5 2 -7 -6
-8 -12 -17 -12 -21 -1 -5 -1 -9 -2 -10 -9 -30 -30 -148 -34 -190 -2 -24 -4
-43 -5 -43 -1 0 -3 -32 -4 -71 -2 -39 -6 -76 -10 -83 -4 -6 -4 -11 1 -11 4 0
8 -47 8 -104 0 -57 3 -102 6 -100 3 2 5 -19 5 -46 -1 -26 2 -46 6 -44 4 2 6
-4 6 -13 -1 -25 17 -153 22 -160 2 -2 3 -6 4 -10 1 -5 5 -14 10 -22 7 -10 6
-12 -3 -6 -10 6 -10 3 0 -16 7 -13 12 -26 12 -29 0 -3 1 -9 2 -15 2 -5 8 -37
15 -70 7 -33 17 -66 22 -72 6 -7 8 -13 5 -13 -3 0 2 -24 13 -54 10 -30 16 -57
13 -60 -4 -3 0 -6 7 -6 7 0 11 -3 8 -6 -3 -3 4 -32 17 -64 13 -32 20 -61 17
-64 -3 -3 0 -6 6 -6 6 0 14 -16 18 -35 3 -19 10 -38 15 -41 5 -3 9 -14 9 -25
0 -10 5 -19 11 -19 5 0 7 -4 4 -10 -3 -5 -1 -10 6 -10 7 0 10 -3 6 -6 -3 -4 5
-28 18 -54 13 -26 21 -50 18 -54 -4 -3 -1 -6 5 -6 10 0 22 -24 22 -43 -1 -4 6
-15 15 -23 8 -9 15 -22 15 -30 0 -8 5 -14 10 -14 6 0 10 -9 10 -20 0 -11 4
-20 8 -20 4 0 13 -12 19 -28 12 -26 17 -34 54 -92 9 -14 26 -41 37 -62 11 -20
27 -44 36 -55 8 -10 38 -49 67 -88 29 -38 62 -80 73 -93 51 -56 99 -102 103
-98 7 6 -19 86 -27 86 -4 0 -11 20 -15 45 -3 25 -10 43 -15 40 -4 -3 -7 3 -5
12 1 10 -2 27 -8 38 -6 11 -10 23 -9 27 1 4 -5 26 -14 50 -9 24 -18 54 -20 68
-3 14 -8 34 -11 45 -4 11 -7 22 -8 25 -4 23 -16 80 -21 100 -3 14 -7 34 -9 45
-2 11 -4 20 -5 20 -2 0 -4 9 -6 20 -1 11 -5 31 -8 45 -7 29 -19 109 -19 128 0
6 -3 12 -7 12 -3 0 -6 10 -6 23 -1 23 -10 88 -20 142 -3 17 -7 48 -9 70 -2 22
-4 40 -5 40 -6 0 -33 322 -34 403 0 23 -3 42 -6 42 -14 0 -1 598 17 750 2 25
6 63 8 85 2 22 4 41 5 43 2 1 4 11 5 22 1 11 3 21 5 23 1 1 3 11 4 22 3 20 16
93 30 160 12 61 42 160 48 163 5 2 8 11 8 20 1 18 31 110 42 128 11 17 28 64
23 64 -2 0 -6 -4 -9 -9z"/>
</g>
</svg>
